<svg focusable="false" class="" width="24" height="24" viewBox="0 0 24 24" fill="none" xmlns="http://www.w3.org/2000/svg">
   <path fill-rule="evenodd" clip-rule="evenodd" d="M10.672 6.468c.274-.281.68-.47 1.35-.47.397 0 .705.083.953.222.24.134.438.33.593.619l.003.006c.14.254.237.618.237 1.14 0 .786-.204 1.245-.48 1.528l-.004.005c-.276.288-.68.476-1.334.476-.386 0-.696-.082-.956-.224a1.49 1.49 0 01-.589-.614c-.145-.275-.242-.652-.242-1.17 0-.791.204-1.245.47-1.518zm1.35-2.472c-1.084 0-2.054.326-2.784 1.077-.738.758-1.036 1.78-1.036 2.912 0 .766.143 1.483.477 2.112l.004.006a3.488 3.488 0 001.377 1.415l.006.004a3.94 3.94 0 001.924.473c1.082 0 2.048-.333 2.775-1.09.741-.762 1.044-1.785 1.044-2.92 0-.763-.142-1.478-.482-2.1a3.488 3.488 0 00-1.376-1.412c-.585-.328-1.238-.477-1.93-.477zM6.469 16.858a3.25 3.25 0 011.29-1.357c.558-.32 1.283-.505 2.221-.505h4.04c.938 0 1.663.186 2.22.505.568.33.993.777 1.29 1.357.304.59.47 1.294.47 2.138v1h2v-1c0-1.112-.22-2.138-.69-3.052a5.322 5.322 0 00-2.073-2.177c-.927-.532-2.015-.77-3.217-.77H9.98c-1.114 0-2.248.211-3.222.773a5.25 5.25 0 00-2.068 2.174c-.47.914-.69 1.94-.69 3.052v1h2v-1c0-.844.166-1.548.47-2.138z"></path>
  </svg>